<svg width="40" height="40" viewBox="0 0 40 40" fill="none" xmlns="http://www.w3.org/2000/svg">
<rect width="40" height="40" fill="white"/>
<path fill-rule="evenodd" clip-rule="evenodd" d="M24.468 11.0105C25.968 11.0105 27.3937 11.638 28.383 12.6168C29.3723 13.5955 30 15.021 29.9998 16.5212C29.9998 17.0104 29.9498 17.4898 29.8509 17.9573C29.6523 18.8942 29.4115 19.5614 28.8616 20.4041C28.5925 20.8166 28.3537 21.1614 28.1276 21.4465C27.9068 21.7252 27.5957 22.0636 27.2021 22.4573C26.8084 22.8508 26.4892 23.1593 26.2446 23.3828C26.1231 23.4936 25.9724 23.6247 25.7958 23.7784C25.6164 23.9345 25.4101 24.114 25.1807 24.319C24.4444 24.9763 23.8748 25.4918 23.4785 25.8614C23.0875 26.2261 22.5981 26.7361 22.0103 27.3933C21.4279 28.0446 20.9303 28.705 20.4997 29.3507C20.3769 29.535 20.202 29.6167 19.9997 29.6167C19.8084 29.6167 19.6466 29.5332 19.5211 29.3507C18.8486 28.3734 18.1383 27.5208 17.1701 26.5955C16.6915 26.138 16.327 25.7898 16.0744 25.5636C16.0298 25.5237 15.981 25.4798 15.9278 25.432C15.6728 25.203 15.3171 24.8835 14.8509 24.4785C14.3613 24.0532 13.9891 23.7232 13.7445 23.4997C13.4998 23.2763 13.1648 22.9627 12.7552 22.5635C12.3458 22.1647 12.0425 21.8189 11.8297 21.5422C11.617 21.2658 11.3685 20.9172 11.0957 20.4998C10.8261 20.0872 10.6234 19.6821 10.4893 19.3083C10.2192 18.5544 10 17.5529 10 16.5211C10 15.021 10.6277 13.5955 11.6171 12.6168C12.6066 11.638 14.0321 11.0104 15.532 11.0104C16.4148 11.0104 17.2446 11.2125 18.0425 11.6169C18.8405 12.0211 19.4894 12.5742 20 13.2764C20.5107 12.5742 21.1595 12.0211 21.9575 11.6169C22.7552 11.2125 23.585 11.0105 24.468 11.0105ZM26.8724 21.0849C27.9018 19.9442 28.5185 18.7865 28.7234 17.6062C28.7844 17.2546 28.8192 16.8933 28.8195 16.5211C28.8195 15.319 28.394 14.2977 27.5429 13.4573C26.6919 12.6168 25.6706 12.1913 24.4684 12.1913C23.628 12.1913 22.8407 12.4146 22.1281 12.8722C21.4154 13.3295 20.9023 13.9398 20.543 14.6912C20.4341 14.9188 20.245 15.021 20.0004 15.021C19.7558 15.021 19.5819 14.9113 19.4791 14.6912C19.1243 13.9325 18.5749 13.3295 17.8621 12.8722C17.1492 12.4146 16.3725 12.1913 15.5322 12.1913C14.3302 12.1913 13.3089 12.6169 12.4472 13.4679C11.5961 14.3083 11.1706 15.3296 11.1706 16.5211C11.1706 17.1486 11.2262 17.7151 11.4046 18.2657L11.6492 19.021C11.7714 19.3985 12.0681 19.8369 12.3058 20.188C12.3605 20.2688 12.4121 20.3449 12.4576 20.4147C12.5757 20.5949 12.7557 20.8189 12.9896 21.0742C13.04 21.1292 13.0882 21.1818 13.1344 21.2321C13.3026 21.4155 13.4426 21.5681 13.5534 21.6913C13.6993 21.8534 13.9226 22.0669 14.2129 22.3295L14.8831 22.936L15.6171 23.5848C16.3061 24.1939 16.8086 24.6381 17.1383 24.9359C17.4681 25.2338 17.9122 25.6832 18.4894 26.2763C19.0611 26.864 19.5638 27.436 20 27.9997C20.4149 27.4253 20.9014 26.8375 21.4575 26.2445C22.0185 25.646 22.4894 25.1703 22.8723 24.819C23.2661 24.4574 23.7685 24.0027 24.3936 23.4466C25.5983 22.3749 26.423 21.5826 26.8724 21.0849Z" fill="#33333A"/>
</svg>
