<svg width="65" height="18" viewBox="0 0 65 18" fill="none" xmlns="http://www.w3.org/2000/svg">
<path d="M0.583984 17H10.76V14H3.99198V0.992027H0.583984V17Z" fill="#263238"/>
<path d="M11.7222 9.00803C11.7222 13.832 15.2502 17.288 20.0742 17.288C24.9222 17.288 28.4502 13.832 28.4502 9.00803C28.4502 4.18403 24.9222 0.728027 20.0742 0.728027C15.2502 0.728027 11.7222 4.18403 11.7222 9.00803ZM24.9462 9.00803C24.9462 11.984 23.0262 14.264 20.0742 14.264C17.1222 14.264 15.2262 11.984 15.2262 9.00803C15.2262 6.00803 17.1222 3.75203 20.0742 3.75203C23.0262 3.75203 24.9462 6.00803 24.9462 9.00803Z" fill="#263238"/>
<path d="M30.0738 9.00803C30.0738 14.048 33.9138 17.312 38.5938 17.312C41.4978 17.312 43.7778 16.112 45.4098 14.288V8.16803H37.7778V11.096H42.0498V13.04C41.3538 13.664 40.0578 14.264 38.5938 14.264C35.6898 14.264 33.5778 12.032 33.5778 9.00803C33.5778 5.98403 35.6898 3.75203 38.5938 3.75203C40.2738 3.75203 41.6418 4.64003 42.3858 5.76803L45.2178 4.23203C43.9938 2.33603 41.9058 0.728027 38.5938 0.728027C33.9138 0.728027 30.0738 3.94403 30.0738 9.00803Z" fill="#263238"/>
<path d="M47.3472 9.00803C47.3472 13.832 50.8752 17.288 55.6992 17.288C60.5472 17.288 64.0752 13.832 64.0752 9.00803C64.0752 4.18403 60.5472 0.728027 55.6992 0.728027C50.8752 0.728027 47.3472 4.18403 47.3472 9.00803ZM60.5712 9.00803C60.5712 11.984 58.6512 14.264 55.6992 14.264C52.7472 14.264 50.8512 11.984 50.8512 9.00803C50.8512 6.00803 52.7472 3.75203 55.6992 3.75203C58.6512 3.75203 60.5712 6.00803 60.5712 9.00803Z" fill="#263238"/>
</svg>
