<svg width="40" height="40" viewBox="0 0 40 40" fill="none" xmlns="http://www.w3.org/2000/svg">
<rect width="40" height="40" fill="white"/>
<path fill-rule="evenodd" clip-rule="evenodd" d="M24.9645 24.1197L29.8248 28.98C30.0554 29.2106 30.0554 29.592 29.8248 29.8226C29.7095 29.9424 29.5543 30 29.4035 30C29.2528 30 29.0976 29.9379 28.9823 29.8226L24.1219 24.9623C22.6231 26.2661 20.6674 27.0554 18.5299 27.0554C13.8293 27.0554 10.0022 23.2284 10.0022 18.5277C10.0022 13.8271 13.8248 10 18.5299 10C23.2306 10 27.0576 13.8226 27.0576 18.5277C27.0576 20.6652 26.2683 22.6208 24.9645 24.1197ZM18.5255 11.1973C14.4856 11.1973 11.1951 14.4834 11.1951 18.5277C11.1951 22.5721 14.4856 25.8625 18.5255 25.8625C22.5698 25.8625 25.8559 22.5676 25.8559 18.5277C25.8559 14.4878 22.5698 11.1973 18.5255 11.1973Z" fill="#33333A"/>
</svg>
