<svg width="40" height="40" viewBox="0 0 40 40" fill="none" xmlns="http://www.w3.org/2000/svg">
<path fill-rule="evenodd" clip-rule="evenodd" d="M28.0368 27.2883L26.8916 14.3926C26.8671 14.1063 26.6258 13.8896 26.3436 13.8896H23.9877C23.955 11.7382 22.1963 10 20.0368 10C17.8773 10 16.1186 11.7382 16.0859 13.8896H13.7301C13.4438 13.8896 13.2065 14.1063 13.182 14.3926L12.0368 27.2883C12.0368 27.2965 12.0358 27.3047 12.0348 27.3129L12.0348 27.3129L12.0348 27.3129C12.0337 27.3211 12.0327 27.3292 12.0327 27.3374C12.0327 28.8057 13.3783 30 15.0348 30H25.0389C26.6953 30 28.0409 28.8057 28.0409 27.3374C28.0409 27.3211 28.0409 27.3047 28.0368 27.2883ZM20.0368 11.1043C21.5869 11.1043 22.8507 12.3476 22.8834 13.8896H17.1902C17.2229 12.3476 18.4867 11.1043 20.0368 11.1043ZM15.0348 28.8957H25.0389C26.0736 28.8957 26.9202 28.2086 26.9366 27.362L25.8364 14.998H23.9877V16.6748C23.9877 16.9816 23.7423 17.227 23.4356 17.227C23.1288 17.227 22.8834 16.9816 22.8834 16.6748V14.998H17.1861V16.6748C17.1861 16.9816 16.9407 17.227 16.6339 17.227C16.3272 17.227 16.0818 16.9816 16.0818 16.6748V14.998H14.2331L13.137 27.362C13.1534 28.2086 13.9959 28.8957 15.0348 28.8957Z" fill="#33333A"/>
<path fill-rule="evenodd" clip-rule="evenodd" d="M28 20C31.866 20 35 16.866 35 13C35 9.13401 31.866 6 28 6C24.134 6 21 9.13401 21 13C21 16.866 24.134 20 28 20Z" fill="#D61043"/>
<path d="M28.0771 16H28.8241V9.997H28.1671L26.6641 11.545L27.1141 12.004L28.0771 10.987V16Z" fill="white"/>
</svg>
